HIERARCHY
ROOT hip
{
	OFFSET 0.000000 0.000000 0.000000 
	CHANNELS 6 Xposition Yposition Zposition Xrotation Zrotation Yrotation
	JOINT abdomen
	{
		OFFSET 0.000000 3.402643 0.000000 
		CHANNELS 3 Xrotation Zrotation Yrotation
		JOINT chest
		{
			OFFSET 0.000000 8.438565 -0.680529 
			CHANNELS 3 Xrotation Zrotation Yrotation
			JOINT neck
			{
				OFFSET 0.000000 10.207942 -0.272212 
				CHANNELS 3 Xrotation Zrotation Yrotation
				JOINT head
				{
					OFFSET 0.000000 3.130431 0.000000 
					CHANNELS 3 Xrotation Zrotation Yrotation
					End Site
					{
						OFFSET 0.000000 3.130435 0.000000 
					}
				}
			}
			JOINT lCollar
			{
				OFFSET 3.470700 6.669187 -0.816635 
				CHANNELS 3 Yrotation Zrotation Xrotation
				JOINT lShldr
				{
					OFFSET 3.198488 0.000000 0.000000 
					CHANNELS 3 Zrotation Yrotation Xrotation
					JOINT lForeArm
					{
						OFFSET 10.139888 0.000000 0.000000 
						CHANNELS 3 Yrotation Zrotation Xrotation
						JOINT lHand
						{
							OFFSET 8.370511 0.000000 0.000000 
							CHANNELS 3 Zrotation Yrotation Xrotation
							End Site
							{
								OFFSET 4.083176 0.000000 0.000000 
							}
						}
					}
				}
			}
			JOINT rCollar
			{
				OFFSET -3.470700 6.669187 -0.816635 
				CHANNELS 3 Yrotation Zrotation Xrotation
				JOINT rShldr
				{
					OFFSET -3.198488 0.000000 0.000000 
					CHANNELS 3 Zrotation Yrotation Xrotation
					JOINT rForeArm
					{
						OFFSET -10.139888 0.000000 0.000000 
						CHANNELS 3 Yrotation Zrotation Xrotation
						JOINT rHand
						{
							OFFSET -8.370511 0.000000 0.000000 
							CHANNELS 3 Zrotation Yrotation Xrotation
							End Site
							{
								OFFSET -4.083176 0.000000 0.000000 
							}
						}
					}
				}
			}
		}
	}
	JOINT lThigh
	{
		OFFSET 5.308129 -1.633274 1.361059 
		CHANNELS 3 Xrotation Zrotation Yrotation
		JOINT lShin
		{
			OFFSET -2.041588 -20.007561 0.000000 
			CHANNELS 3 Xrotation Zrotation Yrotation
			JOINT lFoot
			{
				OFFSET 0.000000 -19.190928 -1.224953 
				CHANNELS 3 Xrotation Yrotation Zrotation
				End Site
				{
					OFFSET 0.000000 -2.449906 4.627600 
				}
			}
		}
	}
	JOINT rThigh
	{
		OFFSET -5.308129 -1.633274 1.361059 
		CHANNELS 3 Xrotation Zrotation Yrotation
		JOINT rShin
		{
			OFFSET 2.041588 -20.007561 0.000000 
			CHANNELS 3 Xrotation Zrotation Yrotation
			JOINT rFoot
			{
				OFFSET 0.000000 -19.190928 -1.224953 
				CHANNELS 3 Xrotation Yrotation Zrotation
				End Site
				{
					OFFSET 0.000000 -2.449906 4.627600 
				}
			}
		}
	}
}
MOTION
Frames: 11
Frame Time: 0.033333
-17.461046 48.182076 10.288671 2.607664 -0.780441 92.151825 0.000000 0.000000 0.000000 -0.381485 3.281178 0.212576 -3.800699 3.573165 1.045027 -20.990433 1.673012 0.290407 -15.869329 -1.483009 0.402735 -70.710930 -11.252934 12.826910 -95.377113 0.359419 -55.738815 52.032825 9.500493 -0.528798 20.393927 12.809725 -2.574221 50.844067 37.014870 6.603125 115.427933 -5.741614 -19.486719 -31.052902 -12.409014 -1.112064 -8.211154 10.241261 6.292213 32.567017 0.208030 28.727003 -3.578703 0.727833 -22.337622 -13.771170 -5.719177 -2.191142 29.841824 4.364533 -13.491298 -16.581980 -0.324408 2.097166 
-17.494406 48.224617 10.299279 2.783545 -0.897378 93.139816 0.000000 0.000000 0.000000 -0.410790 3.183512 0.055347 -3.920240 3.000627 0.742004 -20.648680 1.687170 -0.046163 -15.765197 -1.667544 0.353550 -68.277031 -16.806107 7.227776 -98.443497 -0.387056 -57.267372 49.005310 7.979088 -1.472276 20.678144 13.001046 -2.663170 55.499405 31.441725 12.473852 113.389137 -6.735669 -18.561272 -32.852863 -14.126988 -0.479671 -10.151955 10.131623 5.575825 32.130959 -0.668141 20.272602 -6.222209 0.999288 -18.267443 -13.591990 -5.926962 -2.235199 29.612528 4.323178 -14.055494 -16.577675 -0.347492 2.305426 
-17.516050 48.215672 10.235262 3.017998 -0.955704 93.904541 0.000000 0.000000 0.000000 -0.254266 3.046845 -0.091621 -3.988490 2.457783 0.374105 -20.519794 1.569826 -0.415368 -15.596032 -1.657896 0.484081 -65.660538 -22.704670 1.514093 -101.252426 -1.316922 -57.629360 48.862202 9.172521 -0.970782 20.584137 12.680917 -2.441153 59.576176 27.109507 17.007189 109.298737 -7.029837 -20.606459 -36.583317 -14.224819 -0.049558 -12.643550 9.323731 4.691218 32.204521 -1.187897 16.935194 -6.748784 0.902398 -15.418331 -13.566222 -6.392612 -2.394037 29.889078 4.373535 -13.952303 -16.838114 -0.376313 2.467638 
-17.566639 48.190132 10.088405 3.037604 -1.033702 94.241859 0.000000 0.000000 0.000000 -0.009780 3.085938 -0.176307 -3.840919 2.183675 0.272739 -20.738485 1.796386 -0.677326 -15.119349 -1.591705 0.722280 -62.900768 -27.639584 -3.614258 -103.081520 -2.107625 -53.021519 43.823677 11.938575 -0.166623 21.004511 12.790286 -2.318155 61.197285 23.437372 19.155962 104.898636 -6.752388 -23.063175 -37.578426 -17.024511 0.941971 -13.629009 8.581218 4.161685 28.654539 -1.942063 16.259701 -7.077815 0.780002 -12.498284 -13.666784 -6.862521 -2.662814 30.178234 4.635614 -13.393371 -17.013990 -0.384374 2.475104 
-17.598667 48.150494 9.895022 2.832510 -1.053399 94.225052 0.000000 0.000000 0.000000 0.322782 3.242136 0.077372 -3.716950 2.234094 0.405745 -20.481922 1.647229 -0.740204 -14.568744 -1.673075 1.018783 -60.321896 -32.217834 -7.655313 -104.544777 -2.661438 -49.317894 38.941719 12.669882 -0.332160 21.575579 13.399903 -2.220772 61.137775 20.045456 20.003611 99.715294 -6.323145 -23.465586 -32.782787 -20.512724 1.364535 -14.267211 8.046648 3.663036 24.554041 -2.655035 15.276389 -6.636405 0.560622 -9.700074 -13.796143 -6.971391 -2.677830 30.426249 4.666584 -13.004579 -17.108212 -0.429339 2.649740 
-17.604935 48.136646 9.649992 2.705815 -1.336400 94.087029 0.000000 0.000000 0.000000 0.469543 3.329967 0.291468 -3.642801 2.050647 0.599637 -20.502859 1.732241 -0.905428 -14.061184 -2.142081 1.074717 -58.266392 -36.765831 -11.152320 -105.817886 -3.283644 -48.081120 39.495773 12.050359 -0.499786 22.055296 13.703445 -2.210815 60.524292 17.054773 21.931416 94.229507 -5.473497 -26.521450 -32.261806 -21.175085 1.449022 -15.680462 7.459465 3.109087 21.876783 -3.194876 15.012692 -4.724812 0.313674 -7.546860 -14.057673 -7.243680 -2.722569 30.529095 4.728357 -12.560496 -17.161936 -0.431582 2.825982 
-17.575903 48.074230 9.386163 2.403524 -1.795295 94.113838 0.000000 0.000000 0.000000 0.401112 3.437416 0.376155 -3.586401 2.057685 0.630422 -20.523272 1.783097 -0.983349 -13.723135 -2.076486 1.043811 -57.240158 -40.586731 -13.701158 -107.051834 -3.872022 -48.192711 42.426498 11.456757 -0.476538 22.415337 13.909199 -2.366114 60.295429 13.911983 23.041277 89.416634 -4.260139 -31.825495 -35.546082 -20.862707 1.924657 -17.995905 7.059818 2.709780 21.100668 -3.636287 16.248690 -2.550545 0.131604 -5.855381 -14.632441 -7.369769 -2.698823 30.921021 4.743211 -12.230870 -17.338106 -0.479050 3.177196 
-17.489651 48.036095 9.101784 2.091144 -2.020139 94.300957 0.000000 0.000000 0.000000 0.557650 3.447103 0.405151 -3.655097 2.085792 0.618846 -20.168793 1.617961 -0.937024 -13.496952 -2.227634 1.151345 -55.695213 -44.073639 -14.514555 -107.839081 -3.874606 -48.255459 46.536304 10.974016 -0.333246 23.012184 14.557426 -2.460876 59.620781 9.875777 21.744854 86.427574 -2.785550 -41.183613 -41.622635 -22.261349 3.504401 -19.303888 6.678709 2.293900 20.248463 -3.751989 16.418695 -1.008920 0.043452 -4.656641 -14.731544 -7.526772 -2.767549 31.069878 4.822414 -12.255919 -17.512814 -0.563456 3.574233 
-17.318214 47.996845 8.797343 1.417123 -2.264933 94.484657 0.000000 0.000000 0.000000 0.596928 3.671676 0.585650 -3.964265 2.059760 0.573925 -19.247181 2.012058 -1.423790 -13.375319 -2.387563 1.186680 -55.171200 -46.807434 -14.232952 -107.799042 -3.673850 -47.427315 46.623413 11.540183 -0.098312 23.996496 15.398249 -2.773411 58.776592 4.698267 18.067846 85.426102 -1.820772 -51.838440 -47.712105 -21.966715 4.508156 -20.470310 6.793914 1.982866 20.205996 -3.600156 15.656801 -0.372854 0.026366 -4.057638 -14.681365 -7.086816 -2.531834 30.967890 4.693547 -12.979348 -17.567507 -0.673572 4.266613 
-17.073864 47.931648 8.480000 0.703944 -2.763464 94.916801 0.000000 0.000000 0.000000 0.332733 3.720640 0.822961 -4.410031 2.013847 0.283530 -18.653318 2.135856 -2.008137 -13.242262 -2.233282 0.956777 -56.206940 -48.862835 -11.376405 -106.633041 -2.879085 -44.701275 42.742279 11.209201 -0.542225 24.952639 15.950884 -3.266412 57.947647 -1.232304 12.027310 85.642258 -1.012015 -60.643700 -53.025555 -18.357712 3.798711 -21.911179 6.913383 1.761136 21.340172 -3.507234 14.732269 -0.833837 0.039083 -3.723717 -14.957232 -6.570806 -2.178580 31.059919 4.412157 -14.828240 -17.648033 -0.860360 5.392887 
-16.743162 47.806190 8.158319 -0.058713 -3.652342 95.784981 0.000000 0.000000 0.000000 -0.518631 3.652195 0.787342 -4.937435 1.916792 -0.076637 -17.622974 2.426954 -2.483890 -13.142331 -2.257239 0.171747 -58.883266 -49.711739 -4.786317 -105.269554 -1.309177 -42.018028 41.624012 9.673002 -1.195430 25.487507 15.823665 -4.087171 58.127613 -8.513929 3.074928 87.815384 -0.332477 -66.179283 -54.822296 -16.597132 3.178771 -23.857681 7.067263 1.418498 24.209263 -3.357368 10.246443 -3.013310 0.116915 -3.697135 -15.600821 -5.945509 -1.705782 31.571302 3.974218 -16.364996 -18.100582 -1.099728 6.705751 
